<?xml version="1.0" encoding="UTF-8"?>
<svg enable-background="new 0 0 490.787 490.787" version="1.1" viewBox="0 0 490.79 490.79" xml:space="preserve" 
	xmlns="http://www.w3.org/2000/svg">
	<g fill="#009688">
		<path d="m47.087 245.45 227.14-227.12c4.237-4.093 4.355-10.845 0.262-15.083-4.093-4.237-10.845-4.355-15.083-0.262-0.089 0.086-0.176 0.173-0.262 0.262l-234.67 234.67c-4.164 4.165-4.164 10.917 0 15.083l234.67 234.67c4.237 4.093 10.99 3.975 15.083-0.262 3.993-4.134 3.993-10.687 0-14.821l-227.14-227.14z"/>
		<path d="m466.22 3.235c-4.165-4.164-10.917-4.164-15.083 0l-234.67 234.67c-4.164 4.165-4.164 10.917 0 15.083l234.67 234.67c4.237 4.093 10.99 3.976 15.083-0.261 3.993-4.134 3.993-10.688 0-14.821l-227.14-227.12 227.14-227.12c4.171-4.16 4.179-10.914 0.019-15.085l-0.019-0.019z"/>
	</g>
	<path d="m266.67 490.79c-2.831 5e-3 -5.548-1.115-7.552-3.115l-234.67-234.67c-4.164-4.165-4.164-10.917 0-15.083l234.67-234.67c4.093-4.237 10.845-4.355 15.083-0.262 4.237 4.093 4.355 10.845 0.262 15.083-0.086 0.089-0.173 0.176-0.262 0.262l-227.12 227.12 227.14 227.12c4.171 4.16 4.179 10.914 0.019 15.085-2.006 2.01-4.731 3.138-7.571 3.133z"/>
	<path d="m458.67 490.79c-2.831 5e-3 -5.548-1.115-7.552-3.115l-234.67-234.67c-4.164-4.165-4.164-10.917 0-15.083l234.67-234.67c4.093-4.237 10.845-4.354 15.083-0.262 4.237 4.093 4.354 10.845 0.262 15.083-0.086 0.089-0.173 0.176-0.262 0.262l-227.12 227.12 227.14 227.12c4.171 4.16 4.179 10.914 0.019 15.085-2.006 2.01-4.731 3.138-7.571 3.133z"/>
</svg>
