<?xml version="1.0" encoding="UTF-8"?>
<!DOCTYPE svg  PUBLIC '-//W3C//DTD SVG 1.1//EN'  'http://www.w3.org/Graphics/SVG/1.1/DTD/svg11.dtd'>
<svg enable-background="new 0 0 438.529 438.529" version="1.1" viewBox="0 0 438.53 438.53" xml:space="preserve" xmlns="http://www.w3.org/2000/svg">
	<path d="m349.46 52.534c-10.663-10.657-23.605-15.987-38.834-15.987-15.222 0-28.165 5.327-38.825 15.987-10.656 10.657-15.984 23.598-15.984 38.828 0 9.897 2.467 19.081 7.416 27.55 4.948 8.47 11.604 15.086 19.985 19.842 0 9.897-0.805 18.608-2.42 26.125-1.622 7.517-4.284 14.128-7.994 19.842-3.72 5.711-7.566 10.561-11.566 14.56-4.001 3.999-9.616 7.755-16.848 11.278-7.231 3.521-13.945 6.468-20.129 8.851-6.184 2.375-14.514 5.182-24.982 8.419-19.036 5.903-33.689 11.323-43.968 16.275v-141.9c8.375-4.755 15.037-11.37 19.985-19.84 4.947-8.47 7.421-17.655 7.421-27.552 0-15.225-5.327-28.169-15.987-38.826-10.656-10.656-23.597-15.988-38.826-15.988-15.23 0-28.171 5.328-38.831 15.988-10.656 10.657-15.987 23.601-15.987 38.826 0 9.897 2.474 19.082 7.421 27.552 4.948 8.47 11.609 15.085 19.985 19.84v234.12c-8.376 4.753-15.037 11.375-19.985 19.842-4.947 8.473-7.421 17.658-7.421 27.552 0 15.225 5.327 28.168 15.987 38.824s23.604 15.988 38.831 15.988c15.226 0 28.17-5.332 38.826-15.988 10.657-10.656 15.987-23.6 15.987-38.824 0-9.894-2.474-19.079-7.421-27.552-4.949-8.467-11.61-15.089-19.985-19.842v-7.423c0-13.131 3.949-22.645 11.847-28.544 7.898-5.907 24.029-12.662 48.395-20.273 25.699-8.186 45.021-15.899 57.963-23.134 42.633-24.167 64.142-63.568 64.521-118.2 8.381-4.755 15.037-11.372 19.985-19.842 4.945-8.47 7.423-17.653 7.423-27.55 3e-3 -15.226-5.328-28.167-15.985-38.827zm-202.14 350.6c-5.332 5.331-11.803 7.994-19.414 7.994-7.616 0-14.087-2.663-19.417-7.994-5.327-5.325-7.994-11.8-7.994-19.411 0-7.617 2.664-14.085 7.994-19.417 5.33-5.328 11.801-7.994 19.417-7.994 7.611 0 14.083 2.669 19.414 7.994 5.33 5.332 7.993 11.8 7.993 19.417-1e-3 7.611-2.663 14.085-7.993 19.411zm0-328.91c-5.332 5.33-11.803 7.994-19.414 7.994-7.616 0-14.087-2.664-19.417-7.994-5.327-5.33-7.994-11.798-7.994-19.414 0-7.614 2.664-14.087 7.994-19.412 5.33-5.329 11.801-7.994 19.417-7.994 7.611 0 14.083 2.666 19.414 7.994 5.33 5.325 7.993 11.798 7.993 19.412-1e-3 7.616-2.663 14.087-7.993 19.414zm182.72 36.547c-5.328 5.327-11.796 7.993-19.41 7.993-7.618 0-14.09-2.666-19.414-7.993-5.328-5.327-7.994-11.799-7.994-19.414 0-7.614 2.666-14.083 7.994-19.414s11.796-7.993 19.414-7.993c7.614 0 14.082 2.663 19.41 7.993 5.328 5.326 7.994 11.799 7.994 19.414 0 7.614-2.662 14.087-7.994 19.414z"/>
</svg>
