<?xml version="1.0" encoding="UTF-8"?>
<svg enable-background="new 0 0 490.8 490.8" version="1.1" viewBox="0 0 490.8 490.8" xml:space="preserve" 
	xmlns="http://www.w3.org/2000/svg">
	<g fill="#009688">
		<path d="m231.7 3.128c-4.237-4.093-10.99-3.975-15.083 0.262-3.992 4.134-3.992 10.687 0 14.82l227.12 227.14-227.14 227.12c-4.237 4.093-4.355 10.845-0.262 15.083 4.093 4.237 10.845 4.354 15.083 0.262 0.089-0.086 0.176-0.173 0.262-0.262l234.67-234.67c4.164-4.165 4.164-10.917 0-15.083l-234.65-234.67z"/>
		<path d="m274.36 237.8-234.67-234.67c-4.237-4.093-10.99-3.975-15.083 0.262-3.992 4.134-3.992 10.687 0 14.821l227.12 227.14-227.14 227.11c-4.237 4.093-4.354 10.845-0.262 15.083 4.093 4.237 10.845 4.354 15.083 0.262 0.089-0.086 0.176-0.173 0.262-0.262l234.67-234.67c4.169-4.159 4.179-10.911 0.021-15.082z"/>
	</g>
	<path d="m224.14 490.68c-5.891 0.011-10.675-4.757-10.686-10.648-5e-3 -2.84 1.123-5.565 3.134-7.571l227.14-227.12-227.14-227.11c-4.093-4.237-3.975-10.99 0.262-15.083 4.134-3.992 10.687-3.992 14.82 0l234.67 234.67c4.164 4.165 4.164 10.917 0 15.083l-234.67 234.67c-1.999 1.995-4.707 3.115-7.531 3.115z"/>
	<path d="m32.144 490.68c-5.891 0.011-10.675-4.757-10.686-10.648-5e-3 -2.84 1.123-5.565 3.134-7.571l227.14-227.12-227.14-227.11c-4.171-4.171-4.171-10.933 0-15.104s10.933-4.171 15.104 0l234.67 234.67c4.164 4.165 4.164 10.917 0 15.083l-234.67 234.67c-2.001 2.007-4.718 3.136-7.552 3.136z"/>
</svg>
