<?xml version="1.0" encoding="UTF-8"?>
<svg width="511pt" height="511pt" viewBox="0 -10 511.99 511" 
    xmlns="http://www.w3.org/2000/svg">
    <path d="m510.65 185.9c-3.3516-10.367-12.547-17.73-23.426-18.711l-147.77-13.418-58.434-136.77c-4.3086-10.023-14.121-16.512-25.023-16.512s-20.715 6.4883-25.023 16.535l-58.434 136.75-147.8 13.418c-10.859 1.0039-20.031 8.3438-23.402 18.711-3.3711 10.367-0.25781 21.738 7.957 28.906l111.7 97.961-32.938 145.09c-2.4102 10.668 1.7305 21.695 10.582 28.094 4.7578 3.4375 10.324 5.1875 15.938 5.1875 4.8398 0 9.6406-1.3047 13.949-3.8828l127.47-76.184 127.42 76.184c9.3242 5.6094 21.078 5.0977 29.91-1.3047 8.8555-6.418 12.992-17.449 10.582-28.094l-32.938-145.09 111.7-97.941c8.2148-7.1875 11.352-18.539 7.9805-28.926z" fill="#ffc107"/>
</svg>
